# xmcd
#
# Track frame offsets: 
#        150
#        18124
#        50666
#        67981
#        80396
#        93077
#        103254
#        118256
#        137659
#
# Disc length: 2028 seconds
#
# Revision: 0
# Processed by: cddbd v1.5.2PL0 Copyright (c) Steve Scherf et al.
# Submitted via: ExactAudioCopyFreeDBPlugin 1.0
#
DISCID=7007ea09
DTITLE=The Blue Party - The Blue Party
DYEAR=2009
DGENRE=
TTITLE0=Homeless
TTITLE1=Plains in the Night
TTITLE2=Honduras
TTITLE3=Prison
TTITLE4=Come Down to New Orleans
TTITLE5=Fallen Souls
TTITLE6=So Lonely, So Happy
TTITLE7=Summer Dress
TTITLE8=Empathy for the Devil
EXTD=
EXTT0=
EXTT1=
EXTT2=
EXTT3=
EXTT4=
EXTT5=
EXTT6=
EXTT7=
EXTT8=
PLAYORDER=
